<svg width="32" height="32" viewBox="0 0 32 32" fill="none" xmlns="http://www.w3.org/2000/svg">
<circle cx="16" cy="16" r="16" fill="#D0FFD5"/>
<mask id="mask0_686_718" style="mask-type:alpha" maskUnits="userSpaceOnUse" x="4" y="4" width="24" height="24">
<rect x="4" y="4" width="24" height="24" fill="#D9D9D9"/>
</mask>
<g mask="url(#mask0_686_718)">
<path d="M13.55 19.15L22.025 10.675C22.225 10.475 22.4625 10.375 22.7375 10.375C23.0125 10.375 23.25 10.475 23.45 10.675C23.65 10.875 23.75 11.1125 23.75 11.3875C23.75 11.6625 23.65 11.9 23.45 12.1L14.25 21.3C14.05 21.5 13.8167 21.6 13.55 21.6C13.2833 21.6 13.05 21.5 12.85 21.3L8.54999 17C8.34999 16.8 8.25416 16.5625 8.26249 16.2875C8.27083 16.0125 8.37499 15.775 8.57499 15.575C8.77499 15.375 9.01249 15.275 9.28749 15.275C9.56249 15.275 9.79999 15.375 9.99999 15.575L13.55 19.15Z" fill="#1BDE2F"/>
</g>
</svg>
