<svg width="32" height="32" viewBox="0 0 32 32" fill="none" xmlns="http://www.w3.org/2000/svg">
<g clip-path="url(#clip0_893_777)">
<path d="M16 31.5C24.5604 31.5 31.5 24.5604 31.5 16C31.5 7.43959 24.5604 0.5 16 0.5C7.43959 0.5 0.5 7.43959 0.5 16C0.5 24.5604 7.43959 31.5 16 31.5Z" stroke="#6B6B6B"/>
<mask id="mask0_893_777" style="mask-type:alpha" maskUnits="userSpaceOnUse" x="4" y="4" width="24" height="24">
<path d="M28 4H4V28H28V4Z" fill="#D9D9D9"/>
</mask>
<g mask="url(#mask0_893_777)">
<path d="M13.55 19.15L22.025 10.675C22.225 10.475 22.4625 10.375 22.7375 10.375C23.0125 10.375 23.25 10.475 23.45 10.675C23.65 10.875 23.75 11.1125 23.75 11.3875C23.75 11.6625 23.65 11.9 23.45 12.1L14.25 21.3C14.05 21.5 13.8167 21.6 13.55 21.6C13.2834 21.6 13.05 21.5 12.85 21.3L8.55002 17C8.35002 16.8 8.25419 16.5625 8.26252 16.2875C8.27086 16.0125 8.37502 15.775 8.57502 15.575C8.77502 15.375 9.01252 15.275 9.28752 15.275C9.56252 15.275 9.80002 15.375 10 15.575L13.55 19.15Z" fill="#6B6B6B"/>
</g>
</g>
<defs>
<clipPath id="clip0_893_777">
<rect width="32" height="32" fill="white"/>
</clipPath>
</defs>
</svg>
